<svg xmlns="http://www.w3.org/2000/svg" viewBox="150 150 724 724" width="724" height="724">
<defs>
<linearGradient id="icBg" gradientUnits="userSpaceOnUse" x1="0" y1="0" x2="0" y2="1024">
<stop offset="0" stop-color="#235240" stop-opacity="1"/>
<stop offset="0.55" stop-color="#1B4332" stop-opacity="1"/>
<stop offset="1" stop-color="#0F241B" stop-opacity="1"/>
</linearGradient>
<radialGradient id="icGlow" gradientUnits="userSpaceOnUse" cx="512" cy="470" r="560">
<stop offset="0" stop-color="#D4AF37" stop-opacity="0.16"/>
<stop offset="0.55" stop-color="#D4AF37" stop-opacity="0.04"/>
<stop offset="1" stop-color="#D4AF37" stop-opacity="0"/>
</radialGradient>
<radialGradient id="embBg512_512_350" gradientUnits="userSpaceOnUse" cx="512" cy="424.5" r="385.00000000000006">
<stop offset="0" stop-color="#2D6A4F" stop-opacity="1"/>
<stop offset="0.65" stop-color="#1B4332" stop-opacity="1"/>
<stop offset="1" stop-color="#122E22" stop-opacity="1"/>
</radialGradient>
<linearGradient id="embGold512_512_350" gradientUnits="userSpaceOnUse" x1="162" y1="162" x2="862" y2="862">
<stop offset="0" stop-color="#E9CD6E" stop-opacity="1"/>
<stop offset="0.5" stop-color="#D4AF37" stop-opacity="1"/>
<stop offset="1" stop-color="#A8862B" stop-opacity="1"/>
</linearGradient>
</defs>
<path d="M 512.00 162.00 L 614.51 264.51 L 759.49 264.51 L 759.49 409.49 L 862.00 512.00 L 759.49 614.51 L 759.49 759.49 L 614.51 759.49 L 512.00 862.00 L 409.49 759.49 L 264.51 759.49 L 264.51 614.51 L 162.00 512.00 L 264.51 409.49 L 264.51 264.51 L 409.49 264.51 Z" fill="url(#embBg512_512_350)" stroke="url(#embGold512_512_350)" stroke-width="11.200000000000001" stroke-linecap="round" stroke-linejoin="round"/>
<path d="M 512.00 195.25 L 604.77 288.02 L 735.98 288.02 L 735.98 419.23 L 828.75 512.00 L 735.98 604.77 L 735.98 735.98 L 604.77 735.98 L 512.00 828.75 L 419.23 735.98 L 288.02 735.98 L 288.02 604.77 L 195.25 512.00 L 288.02 419.23 L 288.02 288.02 L 419.23 288.02 Z" fill="none" stroke="#D4AF37" stroke-width="3.5" stroke-linecap="round" stroke-linejoin="round" opacity="0.55"/>
<path d="M 279.25 512.00 C 279.25 383.46 383.46 279.25 512.00 279.25 C 640.54 279.25 744.75 383.46 744.75 512.00 C 744.75 640.54 640.54 744.75 512.00 744.75 C 383.46 744.75 279.25 640.54 279.25 512.00 Z" fill="none" stroke="url(#embGold512_512_350)" stroke-width="5.6000000000000005" stroke-linecap="round" stroke-linejoin="round" opacity="0.9"/>
<path d="M 528.27 404.00 Q 528.27 423.55 515.14 429.55 L 515.14 427.32 Q 521.01 415.03 521.01 409.03 Q 521.01 400.51 511.37 388.78 Q 513.33 377.19 517.65 374.68 L 525.06 383.33 Q 528.27 389.48 528.27 404.00 Z M 535.11 434.16 Q 535.11 441.84 528.13 448.40 Q 521.70 454.54 514.02 455.52 L 510.81 454.54 Q 503.55 462.50 495.59 462.36 Q 492.80 462.36 492.80 458.45 Q 492.80 449.66 502.02 446.17 L 502.44 449.38 Q 502.71 451.19 504.67 451.19 Q 509.98 451.19 514.58 443.23 Q 519.47 434.72 521.29 434.30 L 522.40 435.55 Q 521.01 439.60 520.87 441.84 Q 521.29 442.40 522.96 443.23 Q 526.45 443.23 529.10 434.86 Q 531.76 426.48 533.85 426.48 L 534.83 427.18 Q 535.11 431.09 535.11 434.16 Z M 612.18 449.80 Q 612.18 471.16 605.62 494.90 Q 597.66 522.96 584.82 534.13 Q 576.58 541.25 570.01 541.25 Q 563.31 541.25 554.10 534.13 Q 540.27 583.84 514.44 583.84 Q 508.44 583.84 503.55 574.90 L 497.41 560.66 Q 490.15 559.68 480.79 571.27 Q 473.11 580.77 470.04 589.70 Q 459.71 619.16 457.06 625.03 Q 445.75 649.32 433.74 649.32 Q 422.29 649.32 416.43 636.76 Q 411.82 627.12 411.82 614.14 Q 411.82 564.85 428.43 527.01 Q 432.90 516.82 437.37 509.28 Q 439.74 508.30 440.44 509.00 Q 440.30 509.98 433.04 528.55 Q 422.15 556.47 422.15 587.47 Q 422.15 619.58 436.53 619.58 Q 444.77 619.58 453.85 598.36 Q 459.43 583.98 464.88 569.46 Q 471.16 555.63 479.82 543.76 Q 492.38 526.59 501.88 526.59 Q 503.97 526.59 509.70 538.95 Q 515.42 551.30 521.15 551.30 Q 535.53 551.30 543.49 533.29 Q 549.77 519.19 549.77 502.58 Q 549.77 492.80 548.65 473.25 Q 547.53 453.71 547.53 443.93 Q 547.53 440.16 550.61 429.83 Q 553.82 418.80 555.91 417.40 L 556.75 418.66 L 558.98 465.85 Q 560.38 497.55 567.50 508.16 Q 571.55 511.09 575.18 511.09 Q 587.89 511.09 594.87 495.59 Q 600.31 483.59 600.31 469.34 Q 600.31 455.38 597.38 448.12 Q 593.89 462.50 588.72 486.94 Q 584.12 489.87 584.12 484.42 Q 584.12 465.02 588.86 438.77 Q 594.73 407.07 603.25 396.88 Q 612.18 417.68 612.18 449.80 Z" fill="url(#embGold512_512_350)"/>
</svg>